<svg xmlns="http://www.w3.org/2000/svg" viewBox="0 0 860 256" aria-label="WavCue" role="img">
<style>
  :root{
    --wc-tile:#14151a;
    --wc-ink:#e6e8ee;
    --wc-wave:#e6e8ee;
    --wc-accent:#ffd24a;
  }
  .wc-shadow{ filter: drop-shadow(0 10px 18px rgba(0,0,0,.45)) drop-shadow(0 4px 9px rgba(0,0,0,.35)); }
  .wc-glow{ filter: drop-shadow(0 0 10px rgba(255,210,74,.25)); }
</style>
  <g class="wc-shadow">
    <rect x="24" y="24" width="208" height="208" rx="48" fill="var(--wc-tile)"/>
    <path d="M56 148 C72 148 72 112 88 112 S104 184 120 184 S136 76 152 76 S168 184 184 184 S192 148 200 148"
          stroke="var(--wc-wave)" stroke-width="14" stroke-linecap="round" stroke-linejoin="round" fill="none"/>
    <g class="wc-glow">
      <circle cx="56" cy="148" r="10" style="fill:#ffd24a !important"/>
      <circle cx="200" cy="148" r="10" style="fill:#ffd24a !important"/>
    </g>

    <g fill="var(--wc-ink)" transform="translate(270.000,132.000)">
      <path d="M20.910 -0.000 L35.160 -0.000 L48.420 -45.375 L48.615 -45.375 L61.920 -0.000 L76.170 -0.000 L95.910 -69.000 L79.965 -69.000 L68.295 -21.045 L68.205 -21.045 L55.365 -69.000 L41.715 -69.000 L28.830 -21.045 L28.740 -21.045 L17.070 -69.000 L1.125 -69.000 L20.910 -0.000 Z M116.396 0.750 C123.746 0.750 128.576 -2.010 131.291 -6.990 L131.486 -6.990 L131.486 -0.000 L145.121 -0.000 L145.121 -33.945 C145.121 -43.365 136.826 -50.250 123.326 -50.250 C109.361 -50.250 101.576 -42.885 101.021 -33.660 L114.656 -33.660 C115.031 -37.455 118.361 -39.795 123.146 -39.795 C127.871 -39.795 130.871 -37.545 130.871 -33.990 L130.871 -33.750 C130.871 -30.615 127.691 -30.135 118.691 -29.295 C108.281 -28.410 99.371 -25.080 99.371 -13.920 C99.371 -4.035 106.496 0.750 116.396 0.750 Z M120.521 -9.045 C116.066 -9.045 113.156 -11.010 113.156 -14.385 C113.156 -18.135 116.726 -20.010 121.316 -20.670 C125.666 -21.285 129.371 -22.035 130.976 -22.875 L130.976 -18.000 C130.976 -12.795 126.851 -9.045 120.521 -9.045 Z M202.039 -49.500 L186.934 -49.500 L176.059 -14.715 L175.879 -14.715 L164.914 -49.500 L149.764 -49.500 L167.809 -0.000 L183.979 -0.000 L202.039 -49.500 Z M238.123 1.125 C255.328 1.125 267.793 -10.260 268.648 -26.115 L253.738 -26.115 C252.943 -17.340 246.898 -11.820 238.498 -11.820 C226.918 -11.820 220.543 -20.250 220.543 -34.500 C220.543 -48.795 227.023 -57.195 238.453 -57.195 C246.703 -57.195 252.568 -51.840 253.738 -42.885 L268.648 -42.885 C267.613 -59.385 254.668 -70.125 238.123 -70.125 C219.043 -70.125 205.213 -57.090 205.273 -34.500 C205.213 -12.000 218.863 1.125 238.123 1.125 Z M308.488 -21.705 C308.488 -14.670 304.408 -11.160 298.783 -11.160 C292.963 -11.160 289.363 -14.760 289.363 -21.240 L289.363 -49.500 L274.963 -49.500 L274.963 -18.705 C274.963 -6.660 282.748 0.750 293.398 0.750 C301.033 0.750 306.523 -3.195 308.773 -9.045 L308.953 -9.045 L308.953 -0.000 L322.918 -0.000 L322.918 -49.500 L308.488 -49.500 L308.488 -21.705 Z M353.392 0.750 C365.812 0.795 374.482 -5.715 376.267 -15.615 L363.322 -15.615 C362.107 -11.910 358.222 -9.615 353.527 -9.570 C346.777 -9.615 342.757 -14.625 342.803 -21.045 L342.803 -21.420 L376.688 -21.420 L376.688 -24.750 C376.688 -40.170 367.553 -50.205 353.062 -50.250 C338.392 -50.205 328.928 -39.885 328.928 -24.705 C328.928 -9.135 338.347 0.795 353.392 0.750 Z M342.803 -30.000 C343.072 -35.490 347.197 -39.885 353.257 -39.945 C358.972 -39.885 363.428 -35.865 363.607 -30.000 L342.803 -30.000 Z"/>
    </g>

    <path class="wc-glow" d="M270.000 170.000 C334.037 159.000 394.307 159.000 458.344 170.000 S582.651 181.000 646.688 170.000" stroke="var(--wc-accent)" stroke-width="10"
          stroke-linecap="round" stroke-linejoin="round" fill="none"/>
  </g>
</svg>
